<svg xmlns="http://www.w3.org/2000/svg" viewBox="0 0 260.5 135.61"><defs><style>.cls-1{fill:#00e6dc;}.cls-2{fill:#fff;}</style></defs><title>logo-qiip-dark</title><g id="Layer_2" data-name="Layer 2"><g id="Layer_1-2" data-name="Layer 1"><path class="cls-1" d="M180.32,30.38h19.26v8.15c2.08-2.66,9.79-10.07,23-10.07,22.23,0,37.94,16.89,37.94,40.6,0,24-14.53,40.76-36.76,40.76-13.34,0-21-7.41-23-9.93v35.72H180.32Zm19.86,38.54c0,14.52,8.59,22.82,19.86,22.82,11.85,0,19.86-9.34,19.86-22.82,0-13.79-8.3-22.38-19.86-22.38C207.59,46.54,200.18,56.61,200.18,68.92Z"/><path class="cls-1" d="M162.35,11.71a11.93,11.93,0,0,1-23.86,0,11.93,11.93,0,0,1,23.86,0Zm-1.78,96.18H140.12V30.38h20.45Z"/><path class="cls-2" d="M122.15,11.71a11.93,11.93,0,0,1-23.86,0,11.93,11.93,0,0,1,23.86,0Zm-1.78,96.18H99.92V30.38h20.45Z"/><path class="cls-2" d="M80.18,135.61H59.73V99.89c-1.93,2.52-9.64,9.93-23,9.93C14.52,109.82,0,93.07,0,69.06c0-23.71,15.71-40.6,37.94-40.6,13.19,0,20.9,7.41,23,10.07V30.38H80.18ZM60.32,68.92c0-12.31-7.41-22.38-19.86-22.38-11.56,0-19.86,8.59-19.86,22.38,0,13.48,8,22.82,19.86,22.82C51.72,91.74,60.32,83.44,60.32,68.92Z"/></g></g></svg>