<?xml version="1.0" encoding="UTF-8"?>
<svg width="30px" height="16px" viewBox="0 0 30 16" version="1.1" xmlns="http://www.w3.org/2000/svg" xmlns:xlink="http://www.w3.org/1999/xlink">
    <!-- Generator: Sketch 52.5 (67469) - http://www.bohemiancoding.com/sketch -->
    <title>aparcamiento-de-coches</title>
    <desc>Created with Sketch.</desc>
    <g id="Page-1" stroke="none" stroke-width="1" fill="none" fill-rule="evenodd">
        <g id="Tarjeta-vacía-Copy-7" transform="translate(-46.000000, -152.000000)" fill="#9223E0">
            <g id="Group-7" transform="translate(25.000000, 135.000000)">
                <g id="aparcamiento-de-coches" transform="translate(21.000000, 17.000000)">
                    <g id="Group-4">
                        <g id="Group-2">
                            <path d="M24.1463415,10.4347826 C22.5298983,10.4347826 21.2195122,11.680599 21.2195122,13.2173913 C21.2195122,14.7541837 22.5298983,16 24.1463415,16 C25.7627846,16 27.0731707,14.7541837 27.0731707,13.2173913 C27.0713407,11.6813202 25.762026,10.4365225 24.1463415,10.4347826 Z M24.1463415,14.7157191 C23.275949,14.7157191 22.5703565,14.0448949 22.5703565,13.2173913 C22.5703565,12.3898877 23.275949,11.7190635 24.1463415,11.7190635 C25.0167339,11.7190635 25.7223265,12.3898877 25.7223265,13.2173913 C25.7223265,14.0448949 25.0167339,14.7157191 24.1463415,14.7157191 Z" id="Shape" fill-rule="nonzero"></path>
                            <ellipse id="Oval" cx="5.85365854" cy="13.2173913" rx="2.19512195" ry="2.08695652"></ellipse>
                            <ellipse id="Oval-Copy" cx="24.1463415" cy="13.2173913" rx="2.19512195" ry="2.08695652"></ellipse>
                            <rect id="Rectangle" x="16.097561" y="6.95652174" width="3.65853659" height="2.08695652" rx="1.04347826"></rect>
                            <path d="M28.3536175,7.57067984 L24.5237979,5.97628458 L21.7457635,1.00373913 C21.3635325,0.383702304 20.6539527,0.00089142224 19.8852287,0 L8.45832933,0 C7.50262551,0.00279134432 6.66342541,0.591256802 6.39797316,1.4447668 L4.93737862,5.98613439 L2.14285613,5.98613439 C0.959946894,5.98738467 0.00134490594,6.87854394 0,7.97822925 L0,13.944664 C-2.6433869e-17,14.3113986 0.319796456,14.6086957 0.714285376,14.6086957 L2.53791547,14.6086957 C1.75772122,13.1196925 2.19183709,11.3268507 3.58309113,10.2922568 C4.97434516,9.25766287 6.95112539,9.25766287 8.34237942,10.2922568 C9.73363345,11.3268507 10.1677493,13.1196925 9.38755508,14.6086957 L20.6227879,14.6086957 C19.8425936,13.1196925 20.2767095,11.3268507 21.6679635,10.2922568 C23.0592176,9.25766287 25.0359978,9.25766287 26.4272518,10.2922568 C27.8185058,11.3268507 28.2526217,13.1196925 27.4724275,14.6086957 L29.2857004,14.6086957 C29.6801893,14.6086957 29.9999858,14.3113986 29.9999858,13.944664 L29.9999858,9.83126482 C30.0035113,8.83467861 29.3502722,7.93773317 28.3536175,7.57067984 Z M12.6190416,5.36515415 L7.99082955,5.36515415 C7.84419904,5.36515055 7.7057467,5.30234687 7.61550789,5.19490365 C7.52526909,5.08746042 7.49330758,4.94736011 7.52886548,4.81511462 L8.24315086,2.15898814 C8.29613957,1.9619147 8.4866048,1.82365754 8.70511493,1.82365217 L12.6190416,1.82365217 C12.8820343,1.82365217 13.0952319,2.02185023 13.0952319,2.26633992 L13.0952319,4.9224664 C13.0952319,5.16695609 12.8820343,5.36515415 12.6190416,5.36515415 Z M18.8095149,8.85375494 L16.9047539,8.85375494 C16.510265,8.85375494 16.1904685,8.55645786 16.1904685,8.18972332 C16.1904685,7.82298878 16.510265,7.5256917 16.9047539,7.5256917 L18.8095149,7.5256917 C19.2040038,7.5256917 19.5238003,7.82298878 19.5238003,8.18972332 C19.5238003,8.55645786 19.2040038,8.85375494 18.8095149,8.85375494 Z M15.4761832,4.92252174 L15.4761832,2.26639526 C15.4761832,2.02190557 15.6893808,1.82370751 15.9523734,1.82370751 L20.1573119,1.82370751 C20.335058,1.82370174 20.498012,1.91572616 20.5799307,2.06237154 L22.0638586,4.71849802 C22.1405204,4.85573275 22.1345961,5.02020932 22.0482311,5.15236921 C21.9618661,5.2845291 21.8075794,5.36521489 21.6412398,5.36520949 L15.9523734,5.36520949 C15.6893808,5.36520949 15.4761832,5.16701143 15.4761832,4.92252174 Z" id="Shape" fill-rule="nonzero"></path>
                            <path d="M5.85365854,10.4347826 C4.23721537,10.4347826 2.92682927,11.680599 2.92682927,13.2173913 C2.92682927,14.7541837 4.23721537,16 5.85365854,16 C7.47010171,16 8.7804878,14.7541837 8.7804878,13.2173913 C8.77865774,11.6813202 7.46934306,10.4365225 5.85365854,10.4347826 Z M5.85365854,14.7157191 C4.98326606,14.7157191 4.27767355,14.0448949 4.27767355,13.2173913 C4.27767355,12.3898877 4.98326606,11.7190635 5.85365854,11.7190635 C6.72405101,11.7190635 7.42964353,12.3898877 7.42964353,13.2173913 C7.42964353,13.6147725 7.26360273,13.9958781 6.96804821,14.276869 C6.67249369,14.55786 6.27163574,14.7157191 5.85365854,14.7157191 Z" id="Shape" fill-rule="nonzero"></path>
                        </g>
                    </g>
                </g>
            </g>
        </g>
    </g>
</svg>