<?xml version="1.0" encoding="UTF-8"?>
<svg width="65px" height="65px" viewBox="0 0 65 65" version="1.1" xmlns="http://www.w3.org/2000/svg" xmlns:xlink="http://www.w3.org/1999/xlink">
    <!-- Generator: Sketch 52.5 (67469) - http://www.bohemiancoding.com/sketch -->
    <title>001-verify</title>
    <desc>Created with Sketch.</desc>
    <g id="Page-1" stroke="none" stroke-width="1" fill="none" fill-rule="evenodd">
        <g id="Desktop-Copy-14" transform="translate(-688.000000, -271.000000)" fill="#9223E0">
            <g id="Group-11" transform="translate(463.000000, 226.000000)">
                <g id="001-verify" transform="translate(225.000000, 45.000000)">
                    <g id="Group-9">
                        <path d="M47.125,29.25 C37.269,29.25 29.25,37.269 29.25,47.125 C29.25,56.981 37.269,65 47.125,65 C56.981,65 65,56.981 65,47.125 C65,37.269 56.981,29.25 47.125,29.25 Z M56.068,42.74975 L46.443,53.74975 C45.9425,54.32175 45.2275,54.66275 44.46575,54.6875 C44.4355,54.6875 44.40525,54.6875 44.375,54.6875 C43.64625,54.6875 42.94775,54.39875 42.43075,53.88175 L36.93075,48.38175 C35.8555,47.3065 35.8555,45.5685 36.93075,44.49325 C38.006,43.418 39.744,43.418 40.81925,44.49325 L44.24025,47.91425 L51.92925,39.12525 C52.93025,37.98675 54.66825,37.86575 55.8095,38.86675 C56.95075,39.86775 57.069,41.60575 56.068,42.74975 Z" id="Shape" fill-rule="nonzero"></path>
                        <path d="M44.6435294,8.20625 L23.2317647,0.08125 C22.9105882,-0.0270833333 22.5894118,-0.0270833333 22.2682353,0.08125 L0.856470588,8.20625 C0.347941176,8.39583333 0,8.91041667 0,9.47916667 L0,26.89375 C0,51.59375 22.2414706,56.79375 22.4555882,56.8479167 C22.5626471,56.875 22.6429412,56.875 22.75,56.875 C22.8570588,56.875 22.9373529,56.875 23.0444118,56.8479167 C23.0979412,56.8479167 24.1417647,56.6041667 25.7476471,55.98125 C24.6770588,53.3270833 24.0882353,50.4291667 24.0882353,47.3958333 C24.0882353,35.1541667 33.5629412,25.10625 45.5,24.4020833 L45.5,9.47916667 C45.5,8.91041667 45.1520588,8.39583333 44.6435294,8.20625 Z" id="Path"></path>
                    </g>
                </g>
            </g>
        </g>
    </g>
</svg>