<?xml version="1.0" encoding="UTF-8"?>
<svg width="29px" height="29px" viewBox="0 0 29 29" version="1.1" xmlns="http://www.w3.org/2000/svg" xmlns:xlink="http://www.w3.org/1999/xlink">
    <!-- Generator: Sketch 56.1 (81669) - https://sketch.com -->
    <title>Fill 1</title>
    <desc>Created with Sketch.</desc>
    <g id="Page-1" stroke="none" stroke-width="1" fill="none" fill-rule="evenodd">
        <g id="Personas" transform="translate(-1234.000000, -697.000000)" fill="#FFFFFF">
            <g id="Group-2" transform="translate(1213.000000, 676.000000)">
                <path d="M42.3869302,30.6666667 L27.9222049,30.6666667 C27.1499393,30.6666667 26.5238095,30.0485806 26.5238095,29.2857143 C26.5238095,28.5228479 27.1499393,27.9047619 27.9222049,27.9047619 L42.3869302,27.9047619 C43.1591958,27.9047619 43.7857143,28.5228479 43.7857143,29.2857143 C43.7857143,30.0481986 43.1591958,30.6666667 42.3869302,30.6666667 M42.3869302,36.8809524 L27.9222049,36.8809524 C27.1499393,36.8809524 26.5238095,36.2628664 26.5238095,35.5 C26.5238095,34.7375156 27.1499393,34.1190476 27.9222049,34.1190476 L42.3869302,34.1190476 C43.1591958,34.1190476 43.7857143,34.7375156 43.7857143,35.5 C43.7857143,36.2628664 43.1591958,36.8809524 42.3869302,36.8809524 M22.3833875,21 C21.6190255,21 21,21.6202737 21,22.3853674 L21,43.0946178 C21,43.8597115 21.6190255,44.4796021 22.3833875,44.4796021 L34.8950083,44.4796021 L35.604004,48.8376093 C35.683593,49.3260893 36.0173285,49.7348799 36.4794829,49.9103496 C36.6390454,49.9704996 36.8047597,50 36.9693205,50 C37.2838316,50 37.5944978,49.8923429 37.8455684,49.6866066 L44.200769,44.4796021 L48.6166125,44.4796021 C49.3809745,44.4796021 50,43.8597115 50,43.0946178 L50,22.3853674 C50,21.6202737 49.3809745,21 48.6166125,21 L22.3833875,21 Z" id="Fill-1"></path>
            </g>
        </g>
    </g>
</svg>