<?xml version="1.0" encoding="UTF-8"?>
<svg width="78px" height="93px" viewBox="0 0 78 93" version="1.1" xmlns="http://www.w3.org/2000/svg" xmlns:xlink="http://www.w3.org/1999/xlink">
    <!-- Generator: Sketch 52.5 (67469) - http://www.bohemiancoding.com/sketch -->
    <title>seguros</title>
    <desc>Created with Sketch.</desc>
    <g id="Page-1" stroke="none" stroke-width="1" fill="none" fill-rule="evenodd">
        <g id="Feedback-Copy-50" transform="translate(-62.000000, -140.000000)" fill="#00E6DC" fill-rule="nonzero">
            <g id="seguros" transform="translate(62.000000, 140.000000)">
                <path d="M76.0662651,11.0619141 L39.7771084,0.108984375 C39.2710843,-0.036328125 38.7289157,-0.036328125 38.2228916,0.108984375 L1.93373494,11.0619141 C0.795180723,11.4070312 0,12.4605469 0,13.6775391 L0,53.8019531 C0,59.0150391 2.09638554,64.3552734 6.25301205,69.6773438 C9.41566265,73.7460938 13.8072289,77.8148438 19.2650602,81.7927734 C28.4638554,88.4771484 37.5180723,92.5822266 37.8975904,92.7638672 C38.2409639,92.9273437 38.6204819,93 39,93 C39.3795181,93 39.7590361,92.9273438 40.1024096,92.7638672 C40.4819277,92.6003906 49.5361446,88.4953125 58.7349398,81.7927734 C64.2108434,77.8148438 68.5843373,73.7279297 71.746988,69.6773438 C75.8855422,64.3552734 78,59.0150391 78,53.8019531 L78,13.659375 C78,12.4605469 77.2228916,11.4070312 76.0662651,11.0619141 Z M58.0301205,36.3826172 L34.9879518,58.2703125 C34.1566265,59.0513672 33.0722892,59.4873047 31.9518072,59.4873047 C31.8072289,59.4873047 31.6445783,59.4873047 31.5,59.4691406 C30.2168675,59.3419922 29.060241,58.6517578 28.3192771,57.5800781 L21.813253,48.1347656 C20.4216867,46.1185547 20.9277108,43.3394531 22.9337349,41.9408203 C24.939759,40.5421875 27.7048193,41.0507812 29.0963855,43.0669922 L32.6746988,48.24375 L51.9759036,29.9162109 C53.746988,28.2269531 56.5481928,28.2996094 58.2289157,30.0978516 C59.8915663,31.8779297 59.8192771,34.6933594 58.0301205,36.3826172 Z" id="Shape"></path>
            </g>
        </g>
    </g>
</svg>